<svg width="25" height="27" viewBox="0 0 25 27" fill="none" xmlns="http://www.w3.org/2000/svg">
<path d="M24.9195 7.68976C24.9042 6.59639 24.7099 5.51167 24.3378 4.48907C23.6867 2.74284 22.3609 1.36203 20.6825 0.68607C19.7121 0.306204 18.6861 0.10255 17.6477 0.0794398C16.3122 0.0173324 15.8888 0 12.4986 0C9.10845 0 8.67392 9.68518e-08 7.34812 0.0794398C6.31108 0.10255 5.28515 0.306204 4.31475 0.68607C2.63633 1.36203 1.30914 2.74284 0.659429 4.48907C0.294313 5.49867 0.097179 6.56605 0.0777432 7.64499C0.0180475 9.03591 0 9.47644 0 13.0036C0 16.5307 -1.03434e-08 16.9813 0.0777432 18.3621C0.0985673 19.4425 0.294313 20.5084 0.659429 21.5209C1.31053 23.2657 2.63633 24.6465 4.31614 25.3225C5.28237 25.7154 6.30831 25.9378 7.34951 25.9725C8.68642 26.0346 9.10984 26.0533 12.5 26.0533C15.8902 26.0533 16.3247 26.0533 17.6505 25.9725C18.6875 25.9508 19.7135 25.7471 20.6853 25.3673C22.3637 24.6899 23.6895 23.3091 24.3406 21.5643C24.7057 20.5532 24.9014 19.4873 24.9223 18.4055C24.982 17.016 25 16.5755 25 13.0469C24.9972 9.51977 24.9972 9.07202 24.9195 7.68976ZM12.4903 19.6736C8.94464 19.6736 6.0723 16.6852 6.0723 12.9963C6.0723 9.30745 8.94464 6.31907 12.4903 6.31907C16.0332 6.31907 18.9083 9.30745 18.9083 12.9963C18.9083 16.6852 16.0332 19.6736 12.4903 19.6736ZM19.1637 7.6291C18.3349 7.6291 17.6671 6.93292 17.6671 6.07208C17.6671 5.21125 18.3349 4.51506 19.1637 4.51506C19.9897 4.51506 20.6589 5.21125 20.6589 6.07208C20.6589 6.93292 19.9897 7.6291 19.1637 7.6291Z" fill="url(#paint0_linear_83_448)"/>
<path d="M12.4903 17.3338C14.7927 17.3338 16.6592 15.3918 16.6592 12.9963C16.6592 10.6009 14.7927 8.65894 12.4903 8.65894C10.1878 8.65894 8.32129 10.6009 8.32129 12.9963C8.32129 15.3918 10.1878 17.3338 12.4903 17.3338Z" fill="url(#paint1_linear_83_448)"/>
<defs>
<linearGradient id="paint0_linear_83_448" x1="0" y1="13.0267" x2="25" y2="13.0267" gradientUnits="userSpaceOnUse">
<stop stop-color="white" stop-opacity="0.85"/>
<stop offset="1" stop-color="#999999"/>
</linearGradient>
<linearGradient id="paint1_linear_83_448" x1="8.32129" y1="12.9963" x2="16.6592" y2="12.9963" gradientUnits="userSpaceOnUse">
<stop stop-color="white" stop-opacity="0.85"/>
<stop offset="1" stop-color="#999999"/>
</linearGradient>
</defs>
</svg>
