<svg width="25" height="21" viewBox="0 0 25 21" fill="none" xmlns="http://www.w3.org/2000/svg">
<path d="M25 0.0114269C23.9118 0.779015 22.7069 1.3661 21.4318 1.75006C20.7474 0.963144 19.8379 0.405395 18.8262 0.152252C17.8145 -0.100891 16.7494 -0.0372144 15.7751 0.334669C14.8008 0.706553 13.9641 1.3687 13.3784 2.23156C12.7926 3.09442 12.486 4.11635 12.5 5.15915V6.29552C10.503 6.3473 8.52417 5.9044 6.73978 5.00625C4.95539 4.10811 3.42081 2.7826 2.27273 1.14779C2.27273 1.14779 -2.27273 11.3751 7.95455 15.9205C5.61424 17.5091 2.82631 18.3057 0 18.1932C10.2273 23.8751 22.7273 18.1932 22.7273 5.12506C22.7262 4.80853 22.6958 4.49278 22.6364 4.18188C23.7961 3.03812 24.6146 1.59405 25 0.0114269Z" fill="url(#paint0_linear_83_451)"/>
<defs>
<linearGradient id="paint0_linear_83_451" x1="0" y1="10.1953" x2="25" y2="10.1953" gradientUnits="userSpaceOnUse">
<stop stop-color="white" stop-opacity="0.85"/>
<stop offset="1" stop-color="#999999"/>
</linearGradient>
</defs>
</svg>
